<svg width="520" height="494" viewBox="0 0 520 494" fill="none" xmlns="http://www.w3.org/2000/svg">
<path d="M414.843 2.13281C445.818 2.13282 470.828 11.4863 489.672 30.3301C508.516 49.1739 517.869 74.1837 517.869 105.159V388.405C517.869 418.941 508.51 443.937 489.688 463.219L489.672 463.234C470.828 482.078 445.818 491.432 414.843 491.432H277.94C247.405 491.432 222.409 482.073 203.127 463.25L203.096 463.219C184.273 443.937 174.914 418.941 174.914 388.405V105.159C174.914 74.1837 184.268 49.1739 203.111 30.3301L203.127 30.3145C222.409 11.4917 247.405 2.13283 277.94 2.13281H414.843ZM319.078 115.794C312.727 115.794 308.121 117.683 304.963 121.236L304.927 121.277L304.888 121.316C301.744 124.46 300.039 129.091 300.039 135.507V358.058C300.039 364.435 301.726 369.336 304.924 372.958C308.067 376.079 312.687 377.77 319.078 377.771H373.705C379.628 377.77 384.053 376.09 387.221 372.923C390.855 369.289 392.744 364.401 392.744 358.058V135.507C392.744 129.155 390.854 124.55 387.301 121.392L387.219 121.318L387.146 121.236C383.962 117.655 379.561 115.794 373.705 115.794H319.078Z" stroke="#EF323F" stroke-width="3.73419"/>
<path d="M110.398 371.027V484.688H2.13281V371.027H110.398Z" stroke="#EF323F" stroke-width="3.73419"/>
</svg>
